<svg xmlns="http://www.w3.org/2000/svg" xmlns:xlink="http://www.w3.org/1999/xlink" viewBox="0,0,256,256" width="48px" height="48px" fill-rule="nonzero"><g fill="#ffffff" fill-rule="nonzero" stroke="none" stroke-width="1" stroke-linecap="butt" stroke-linejoin="miter" stroke-miterlimit="10" stroke-dasharray="" stroke-dashoffset="0" font-family="none" font-weight="none" font-size="none" text-anchor="none" style="mix-blend-mode: normal"><g transform="scale(5.33333,5.33333)"><path d="M15.5,5c-3.57194,0 -6.5,2.92806 -6.5,6.5v22.5h-3.5c-1.36359,0 -2.5,1.13641 -2.5,2.5v2c0,2.4675 2.0325,4.5 4.5,4.5h27c2.4675,0 4.5,-2.0325 4.5,-4.5v-24.5h3.5c1.36359,0 2.5,-1.13641 2.5,-2.5v-2c0,-2.38674 -1.90613,-4.34953 -4.26367,-4.47656c-0.07803,-0.01405 -0.15706,-0.02188 -0.23633,-0.02344zM15.5,8h20.80664c-0.17208,0.47448 -0.30664,0.96941 -0.30664,1.5v2.75391c-0.02645,0.16103 -0.02645,0.3253 0,0.48633v25.75977c0,0.8465 -0.6535,1.5 -1.5,1.5c-0.8465,0 -1.5,-0.6535 -1.5,-1.5v-2c0,-1.36359 -1.13641,-2.5 -2.5,-2.5h-18.5v-22.5c0,-1.95006 1.54994,-3.5 3.5,-3.5zM40.5,8c0.8465,0 1.5,0.6535 1.5,1.5v1.5h-3v-1.5c0,-0.8465 0.6535,-1.5 1.5,-1.5zM17.5,13c-0.54095,-0.00765 -1.04412,0.27656 -1.31683,0.74381c-0.27271,0.46725 -0.27271,1.04514 0,1.51238c0.27271,0.46725 0.77588,0.75146 1.31683,0.74381h13c0.54095,0.00765 1.04412,-0.27656 1.31683,-0.74381c0.27271,-0.46725 0.27271,-1.04514 0,-1.51238c-0.27271,-0.46725 -0.77588,-0.75146 -1.31683,-0.74381zM17.5,20c-0.54095,-0.00765 -1.04412,0.27656 -1.31683,0.74381c-0.27271,0.46725 -0.27271,1.04514 0,1.51238c0.27271,0.46725 0.77588,0.75146 1.31683,0.74381h13c0.54095,0.00765 1.04412,-0.27656 1.31683,-0.74381c0.27271,-0.46725 0.27271,-1.04514 0,-1.51238c-0.27271,-0.46725 -0.77588,-0.75146 -1.31683,-0.74381zM17.5,27c-0.54095,-0.00765 -1.04412,0.27656 -1.31683,0.74381c-0.27271,0.46725 -0.27271,1.04514 0,1.51238c0.27271,0.46725 0.77588,0.75146 1.31683,0.74381h11c0.54095,0.00765 1.04412,-0.27656 1.31683,-0.74381c0.27271,-0.46725 0.27271,-1.04514 0,-1.51238c-0.27271,-0.46725 -0.77588,-0.75146 -1.31683,-0.74381zM6,37h4.25391c0.16103,0.02645 0.3253,0.02645 0.48633,0h19.25977v1.5c0,0.53059 0.13456,1.02552 0.30664,1.5h-22.80664c-0.8465,0 -1.5,-0.6535 -1.5,-1.5z"></path></g></g></svg>