<svg xmlns="http://www.w3.org/2000/svg" xmlns:xlink="http://www.w3.org/1999/xlink" viewBox="0,0,256,256" width="32px" height="32px" fill-rule="nonzero"><g fill="#ffffff" fill-rule="nonzero" stroke="none" stroke-width="1" stroke-linecap="butt" stroke-linejoin="miter" stroke-miterlimit="10" stroke-dasharray="" stroke-dashoffset="0" font-family="none" font-weight="none" font-size="none" text-anchor="none" style="mix-blend-mode: normal"><g transform="scale(8,8)"><path d="M9,7c-2.75,0 -5,2.25 -5,5v13h12v4h2v-4h10v-13c0,-2.75 -2.25,-5 -5,-5zM9,9c1.66797,0 3,1.33203 3,3v11h-6v-11c0,-1.66797 1.33203,-3 3,-3zM12.96875,9h10.03125c1.66797,0 3,1.33203 3,3v11h-12v-11c0,-1.13281 -0.39062,-2.16016 -1.03125,-3zM17,11v2h5v2h2v-4zM7,13v2h4v-2z"></path></g></g></svg>